<svg width="177" height="183" xmlns="http://www.w3.org/2000/svg">
 <!-- Created with Method Draw - http://github.com/duopixel/Method-Draw/ -->

 <g>
  <title>background</title>
  <rect fill="#fff" id="canvas_background" height="185" width="179" y="-1" x="-1"/>
  <g display="none" overflow="visible" y="0" x="0" height="100%" width="100%" id="canvasGrid">
   <rect fill="url(#gridpattern)" stroke-width="0" y="0" x="0" height="100%" width="100%"/>
  </g>
 </g>
 <g>
  <title>Layer 1</title>
  <defs>
   <style type="text/css">
    <![CDATA[
    .str0 {stroke:#1C1A32;stroke-width:7.62}
    .fil0 {fill:#1C1A32}
    .fil2 {fill:#3DB890}
    .fil3 {fill:#DF1562}
    .fil1 {fill:#E8A720}
   ]]>
   </style>
  </defs>
  <g transform="rotate(-180 88.98770141601562,91.0592269897461) " stroke="null" id="svg_16">
   <g stroke="null" transform="matrix(0.020759543774257736,0,0,-0.02078238287980304,-2742609.6255951133,1893970.7953394598) " id="svg_6">
    <metadata stroke="null" transform="translate(-96.34123229980469,48.11767578125) translate(289.023681640625,-433.0591125488281) translate(-13961.9111328125,0) translate(1.4901161193847656e-8,11256.6181640625) translate(1.4901161193847656e-8,-6790.453125) translate(132121376,0) translate(0,91119424) " id="svg_8"/>
    <g stroke="null" id="svg_7">
     <path stroke="null" id="svg_10" d="m132120792.771317,91129418.223602c0,68 -2,137 -6,206c202,22 394,85 566,180c12,-128 20,-257 20,-386c0,-746 -224,-1463 -645,-2076c-371,-537 -875,-964 -1461,-1238c-8,200 -54,398 -135,580c1018,525 1661,1568 1661,2734z" class="fil0 str0"/>
     <path stroke="null" id="svg_11" d="m132116310.771317,91126676.223602c-81,-182 -125,-380 -131,-582c-641,297 -1187,776 -1565,1376c200,34 388,107 554,212c291,-427 685,-772 1142,-1006z" class="fil0 str0"/>
     <path stroke="null" id="svg_12" d="m132119337.771317,91132035.223602c-487,303 -1043,463 -1625,463c-1192,0 -2269,-684 -2780,-1753l-392,498c648,1127 1851,1834 3172,1834c712,0 1393,-202 1983,-584l-299,-379c-20,-27 -41,-53 -59,-79z" class="fil0 str0"/>
     <path stroke="null" id="svg_13" d="m132117722.771317,91127611.223602l758,-962c136,-172 208,-380 208,-598c0,-531 -434,-966 -966,-966c-531,0 -965,435 -965,966c0,218 72,426 208,598l757,962zm0,-1847c160,0 287,129 287,287c0,160 -127,287 -287,287c-157,0 -286,-127 -286,-287c0,-158 129,-287 286,-287z" class="fil1"/>
     <path stroke="null" id="svg_14" d="m132115316.771317,91128991.223602c0,-533 -435,-966 -966,-966c-532,0 -966,433 -966,966c0,219 72,425 208,597l758,961l758,-961c135,-172 208,-378 208,-597zm-966,287c-160,0 -287,-129 -287,-287c0,-159 127,-289 287,-289c157,0 287,130 287,289c0,158 -130,287 -287,287z" class="fil2"/>
     <path stroke="null" id="svg_15" d="m132120608.771317,91130192.223602c-533,0 -966,432 -966,966c0,218 73,424 208,596l758,962l756,-960c137,-174 208,-380 208,-598c0,-534 -432,-966 -964,-966zm0,1253c-159,0 -289,-130 -289,-287c0,-160 130,-289 289,-289c158,0 287,129 287,289c0,157 -129,287 -287,287z" class="fil3"/>
    </g>
   </g>
  </g>
 </g>
</svg>