<?xml version="1.0" encoding="UTF-8"?>
<!DOCTYPE svg PUBLIC "-//W3C//DTD SVG 1.1//EN" "http://www.w3.org/Graphics/SVG/1.1/DTD/svg11.dtd">
<!-- Creator: CorelDRAW X7 -->
<svg xmlns="http://www.w3.org/2000/svg" xml:space="preserve" width="160mm" height="45mm" version="1.1" style="shape-rendering:geometricPrecision; text-rendering:geometricPrecision; image-rendering:optimizeQuality; fill-rule:evenodd; clip-rule:evenodd"
viewBox="0 0 16000 4500"
 xmlns:xlink="http://www.w3.org/1999/xlink">
 <defs>
  <style type="text/css">
   <![CDATA[
    .str0 {stroke:#52364A;stroke-width:105.83;stroke-linecap:round;stroke-linejoin:round}
    .fil0 {fill:none}
    .fil3 {fill:#3DB890}
    .fil1 {fill:#52364A}
    .fil4 {fill:#DF1562}
    .fil2 {fill:#E8A720}
    .fil5 {fill:#52364A;fill-rule:nonzero}
   ]]>
  </style>
 </defs>
 <g id="Layer_x0020_1">
  <metadata id="CorelCorpID_0Corel-Layer"/>
  <g id="_2913441605264">
   <g>
    <g>
     <path class="fil0 str0" d="M4929 2108c0,21 -1,43 -2,64 63,7 122,27 176,56 4,-40 6,-80 6,-120 0,-232 -70,-455 -201,-646 -115,-167 -272,-299 -454,-385 -2,62 -17,124 -42,180 317,164 517,488 517,851z"/>
     <path id="1" class="fil1" d="M4929 2108c0,21 -1,43 -2,64 63,7 122,27 176,56 4,-40 6,-80 6,-120 0,-232 -70,-455 -201,-646 -115,-167 -272,-299 -454,-385 -2,62 -17,124 -42,180 317,164 517,488 517,851z"/>
    </g>
    <g>
     <path class="fil0 str0" d="M3534 1255c-25,-57 -39,-118 -40,-181 -200,92 -370,241 -487,428 62,11 120,34 172,66 91,-132 213,-240 355,-313z"/>
     <path id="1" class="fil1" d="M3534 1255c-25,-57 -39,-118 -40,-181 -200,92 -370,241 -487,428 62,11 120,34 172,66 91,-132 213,-240 355,-313z"/>
    </g>
    <g>
     <path class="fil0 str0" d="M4476 2922c-151,94 -324,144 -505,144 -371,0 -706,-213 -865,-545l-122 155c201,350 576,570 987,570 221,0 433,-62 616,-181l-93 -119c-6,-8 -12,-16 -18,-24z"/>
     <path id="1" class="fil1" d="M4476 2922c-151,94 -324,144 -505,144 -371,0 -706,-213 -865,-545l-122 155c201,350 576,570 987,570 221,0 433,-62 616,-181l-93 -119c-6,-8 -12,-16 -18,-24z"/>
    </g>
   </g>
   <g>
    <path class="fil2" d="M3974 1546l235 -299c43,-54 65,-118 65,-186 0,-166 -135,-301 -300,-301 -166,0 -301,135 -301,301 0,68 23,132 65,186l236 299zm0 -575c49,0 89,40 89,90 0,49 -40,89 -89,89 -50,0 -90,-40 -90,-89 0,-50 40,-90 90,-90z"/>
    <path class="fil3" d="M3225 1975c0,-166 -135,-300 -301,-300 -165,0 -300,134 -300,300 0,68 23,132 65,186l235 299 236 -299c42,-54 65,-118 65,-186zm-301 90c-49,0 -89,-41 -89,-90 0,-49 40,-89 89,-89 50,0 90,40 90,89 0,49 -40,90 -90,90z"/>
    <path class="fil4" d="M4871 2349c-165,0 -300,134 -300,300 0,68 22,132 65,186l235 299 236 -299c42,-54 64,-118 64,-186 0,-166 -134,-300 -300,-300zm0 390c-49,0 -89,-41 -89,-90 0,-49 40,-89 89,-89 50,0 90,40 90,89 0,49 -40,90 -90,90z"/>
   </g>
   <path class="fil5" d="M2528 2439c-15,130 -52,249 -112,355 -59,106 -134,197 -225,273 -91,76 -195,135 -312,177 -116,43 -243,64 -380,64 -151,0 -290,-25 -416,-75 -126,-50 -234,-126 -325,-228 -91,-101 -162,-227 -212,-377 -50,-150 -75,-326 -75,-526 0,-200 25,-373 75,-519 50,-145 121,-264 212,-357 91,-92 201,-161 330,-207 129,-45 272,-68 430,-68 145,0 278,20 398,59 120,39 224,97 314,173 89,76 160,167 211,273 52,106 82,224 91,355l-596 0c-15,-115 -61,-206 -138,-271 -78,-65 -173,-98 -285,-98 -64,0 -123,11 -177,32 -55,21 -103,57 -144,107 -41,50 -73,117 -98,200 -24,84 -36,186 -36,307 0,246 44,428 132,547 88,118 190,177 305,177 115,0 214,-32 296,-96 82,-63 129,-156 141,-277l596 0z"/>
   <path id="1" class="fil5" d="M8071 3249l0 -1356c0,-137 -32,-247 -96,-332 -64,-85 -149,-128 -255,-128 -109,0 -199,46 -271,137 -71,91 -107,204 -107,341l0 1338 -591 0 0 -1347c0,-91 -6,-165 -18,-223 -12,-58 -33,-103 -62,-137 -29,-33 -66,-57 -111,-70 -46,-14 -100,-21 -164,-21 -240,0 -360,146 -360,437l0 1361 -591 0 0 -2239 555 0 0 328c76,-149 167,-251 273,-305 106,-55 234,-82 382,-82 76,0 144,6 203,18 59,12 112,33 159,61 47,29 92,66 134,112 43,45 85,100 128,164 60,-125 141,-215 241,-271 100,-56 221,-84 364,-84 112,0 215,19 309,57 94,38 175,91 242,159 66,68 119,148 157,239 38,91 56,188 56,291l0 1552 -577 0z"/>
   <path id="2" class="fil5" d="M8899 3249l0 -2239 591 0 0 2239 -591 0zm0 -2508l0 -550 591 0 0 550 -591 0z"/>
   <path id="3" class="fil5" d="M10815 2803c145,0 266,-55 361,-166 96,-111 144,-262 144,-453 0,-479 -169,-719 -505,-719 -337,0 -506,228 -506,683 0,200 48,359 144,477 95,119 216,178 362,178zm486 146c-42,100 -119,178 -229,234 -111,56 -239,84 -385,84 -185,0 -340,-33 -466,-98 -126,-65 -228,-151 -305,-257 -78,-106 -134,-229 -169,-368 -34,-140 -52,-283 -52,-428 0,-173 26,-332 77,-476 52,-144 122,-267 210,-368 88,-102 191,-181 309,-237 119,-56 246,-84 383,-84 279,0 488,112 627,337l0 -278 592 0 0 2262c0,170 -29,319 -86,448 -58,129 -137,236 -237,323 -100,86 -218,152 -355,198 -136,45 -282,68 -437,68 -155,0 -299,-22 -432,-66 -134,-44 -248,-106 -344,-186 -95,-81 -170,-179 -225,-294 -55,-115 -82,-246 -82,-391l551 0c0,136 44,242 134,316 89,74 209,111 357,111 158,0 291,-43 401,-129 109,-87 163,-204 163,-353l0 -368z"/>
   <path id="4" class="fil5" d="M12130 3249l0 -2239 555 0 0 268c48,-75 99,-135 152,-177 53,-43 108,-75 164,-98 56,-23 113,-37 171,-43 57,-6 117,-9 177,-9l78 0 0 605c-55,-9 -110,-14 -164,-14 -361,0 -542,181 -542,542l0 1165 -591 0z"/>
   <path id="5" class="fil5" d="M14919 1911c-3,-82 -17,-154 -43,-216 -26,-62 -60,-114 -102,-155 -43,-41 -91,-71 -146,-91 -55,-20 -111,-29 -168,-29 -119,0 -221,43 -308,129 -86,87 -135,207 -147,362l914 0zm-933 373c9,170 59,305 148,405 90,100 207,150 353,150 97,0 183,-22 257,-66 74,-44 122,-105 143,-184l610 0c-70,231 -191,408 -364,532 -173,125 -379,187 -619,187 -746,0 -1119,-406 -1119,-1220 0,-172 24,-329 73,-468 48,-140 119,-260 211,-360 93,-100 206,-176 339,-230 134,-53 287,-79 460,-79 346,0 607,111 785,332 177,221 266,555 266,1001l-1543 0z"/>
  </g>
 </g>
</svg>
